<svg width="26" height="26" viewBox="0 0 26 26" fill="none" xmlns="http://www.w3.org/2000/svg">
<path d="M14.8554 1H5.86154C5.21686 1 4.59859 1.25286 4.14273 1.70294C3.68687 2.15303 3.43077 2.76348 3.43077 3.4V22.6C3.43077 23.2365 3.68687 23.847 4.14273 24.2971C4.59859 24.7471 5.21686 25 5.86154 25H20.4462C21.0909 25 21.7091 24.7471 22.165 24.2971C22.6208 23.847 22.8769 23.2365 22.8769 22.6V13.72M1 5.8H5.86154M1 10.6H5.86154M1 15.4H5.86154M1 20.2H5.86154" stroke="#F8F8F8" stroke-width="2" stroke-linecap="round" stroke-linejoin="round"/>
<path d="M20.9323 1.72026C21.4389 1.39739 22.0423 1.25567 22.6419 1.31873C23.2415 1.38178 23.8011 1.64579 24.2275 2.06678C24.6539 2.48776 24.9213 3.04029 24.9851 3.6323C25.049 4.22431 24.9054 4.82005 24.5784 5.32026L18.0154 11.8003L13.1538 13.0003L14.3692 8.20026L20.9323 1.72026Z" stroke="#F8F8F8" stroke-width="2" stroke-linecap="round" stroke-linejoin="round"/>
</svg>
