<svg width="32" height="32" viewBox="0 0 32 32" fill="none" xmlns="http://www.w3.org/2000/svg">
<path d="M16.2249 4.05189C16.0769 4.01775 15.9231 4.01775 15.7751 4.05189L3.75529 6.8257C3.31318 6.92773 3 7.32141 3 7.77514C3 8.40176 3.58292 8.86548 4.19349 8.72458L15.7751 6.05189C15.9231 6.01775 16.0769 6.01775 16.2249 6.05189L27.8065 8.72458C28.4171 8.86548 29 8.40176 29 7.77514C29 7.32141 28.6868 6.92773 28.2447 6.8257L16.2249 4.05189ZM10 10C6.88472 10 3.84306 11.2237 3.63619 11.3084C3.62816 11.3117 3.62104 11.3148 3.61312 11.3183L3.59115 11.3282C3.23148 11.4893 3 11.8467 3 12.2408V26C3 26.5523 3.44772 27 4 27H13.7059C14.062 27 14.3782 27.2043 14.6352 27.4507C14.9904 27.7912 15.4674 28 16 28C16.5319 28 17.0093 27.7912 17.3647 27.4506C17.6218 27.2043 17.938 27 18.2941 27H28C28.5523 27 29 26.5523 29 26V12.2408C29 11.8472 28.7691 11.4902 28.4101 11.3288L28.3875 11.3186C28.3792 11.3149 28.3718 11.3117 28.3633 11.3082C28.1524 11.2219 25.113 10 22 10C19.5259 10 17.3077 10.7045 16.3731 11.0457C16.1319 11.1337 15.8681 11.1337 15.6269 11.0457C14.6923 10.7045 12.4741 10 10 10ZM10 12C11.566 12 13.2186 12.4098 14.3217 12.7484C14.7298 12.8736 15 13.2556 15 13.6825V22.7113C15 23.3925 14.3339 23.8733 13.6736 23.7058C12.6484 23.4458 11.3758 23.219 10 23.219C8.58392 23.219 7.34529 23.4387 6.32478 23.7016C5.66525 23.8715 5 23.3928 5 22.7117V13.6703C5 13.2494 5.26243 12.8707 5.66324 12.7421C6.6537 12.4244 8.27457 12 10 12ZM22 12C23.7249 12 25.3453 12.4248 26.3358 12.7422C26.737 12.8708 27 13.2498 27 13.6711V22.7132C27 23.3939 26.3356 23.8723 25.6765 23.7025C24.6556 23.4394 23.4169 23.219 22 23.219C20.6242 23.219 19.3516 23.4458 18.3264 23.7058C17.6661 23.8733 17 23.3925 17 22.7113V13.6825C17 13.2556 17.2702 12.8736 17.6783 12.7484C18.7814 12.4098 20.434 12 22 12Z" fill="white"/>
</svg>
