<svg width="24" height="24" viewBox="0 0 24 24" fill="none" xmlns="http://www.w3.org/2000/svg">
<path d="M8 3H6C5.46957 3 4.96086 3.23413 4.58579 3.65087C4.21071 4.06762 4 4.63285 4 5.22222V20.7778C4 21.3671 4.21071 21.9324 4.58579 22.3491C4.96086 22.7659 5.46957 23 6 23H18C18.5304 23 19.0391 22.7659 19.4142 22.3491C19.7893 21.9324 20 21.3671 20 20.7778V5.22222C20 4.63285 19.7893 4.06762 19.4142 3.65087C19.0391 3.23413 18.5304 3 18 3H14M8 3V13L11 9.66667L14 13V3M8 3H14" stroke="#F8F8F8" stroke-width="2" stroke-linecap="round" stroke-linejoin="round"/>
</svg>
