<svg width="24" height="24" viewBox="0 0 24 24" fill="none" xmlns="http://www.w3.org/2000/svg">
<path d="M2 24C1.45 24 0.979333 23.7652 0.588 23.2956C0.196667 22.826 0.000666667 22.2608 0 21.6V4.8H2V21.6H16V24H2ZM6 19.2C5.45 19.2 4.97933 18.9652 4.588 18.4956C4.19667 18.026 4.00067 17.4608 4 16.8V2.4C4 1.74 4.196 1.1752 4.588 0.7056C4.98 0.236 5.45067 0.0008 6 0H18C18.55 0 19.021 0.2352 19.413 0.7056C19.805 1.176 20.0007 1.7408 20 2.4V16.8C20 17.46 19.8043 18.0252 19.413 18.4956C19.0217 18.966 18.5507 19.2008 18 19.2H6ZM11 10.8L13.5 9L16 10.8V2.4H11V10.8Z" fill="white"/>
</svg>
