<svg width="25" height="25" viewBox="0 0 25 25" fill="none" xmlns="http://www.w3.org/2000/svg">
<path fill-rule="evenodd" clip-rule="evenodd" d="M17.6653 6.66645C17.6655 7.42492 17.4306 8.16481 16.9928 8.78422C16.5551 9.40363 15.9361 9.87209 15.2211 10.1251V12.7771H18.8874C19.8597 12.7771 20.7922 13.1634 21.4798 13.851C22.1674 14.5386 22.5536 15.4711 22.5536 16.4435V17.8734C23.3694 18.1617 24.0569 18.7291 24.4947 19.4754C24.9326 20.2216 25.0925 21.0986 24.9462 21.9514C24.8 22.8042 24.357 23.5778 23.6955 24.1354C23.034 24.6931 22.1967 24.999 21.3315 24.999C20.4664 24.999 19.629 24.6931 18.9676 24.1354C18.3061 23.5778 17.8631 22.8042 17.7168 21.9514C17.5706 21.0986 17.7305 20.2216 18.1683 19.4754C18.6062 18.7291 19.2937 18.1617 20.1095 17.8734V16.4435C20.1095 16.1194 19.9807 15.8085 19.7515 15.5793C19.5223 15.3501 19.2115 15.2214 18.8874 15.2214H9.11068C8.78656 15.2214 8.47572 15.3501 8.24654 15.5793C8.01735 15.8085 7.8886 16.1194 7.8886 16.4435V17.8734C8.70433 18.1617 9.39188 18.7291 9.82971 19.4754C10.2675 20.2216 10.4275 21.0986 10.2812 21.9514C10.135 22.8042 9.69194 23.5778 9.03048 24.1354C8.36901 24.6931 7.53169 24.999 6.66651 24.999C5.80133 24.999 4.96401 24.6931 4.30254 24.1354C3.64108 23.5778 3.19806 22.8042 3.05181 21.9514C2.90556 21.0986 3.06548 20.2216 3.50331 19.4754C3.94114 18.7291 4.62869 18.1617 5.44442 17.8734V16.4435C5.44442 15.4711 5.83069 14.5386 6.51825 13.851C7.2058 13.1634 8.13833 12.7771 9.11068 12.7771H12.7769V10.1251C12.1429 9.90123 11.5825 9.50735 11.1572 8.9865C10.7319 8.46566 10.4579 7.8379 10.3653 7.17185C10.2727 6.50581 10.3649 5.82711 10.632 5.20997C10.8991 4.59282 11.3307 4.06099 11.8796 3.6726C12.4285 3.28421 13.0737 3.05423 13.7445 3.00778C14.4153 2.96134 15.086 3.10023 15.6832 3.40926C16.2804 3.7183 16.7812 4.18558 17.1308 4.76004C17.4803 5.33449 17.6652 5.99399 17.6653 6.66645ZM13.999 5.44432C13.6749 5.44432 13.3641 5.57308 13.1349 5.80227C12.9057 6.03147 12.7769 6.34232 12.7769 6.66645C12.7769 6.99058 12.9057 7.30143 13.1349 7.53063C13.3641 7.75982 13.6749 7.88858 13.999 7.88858C14.3231 7.88858 14.634 7.75982 14.8632 7.53063C15.0924 7.30143 15.2211 6.99058 15.2211 6.66645C15.2211 6.34232 15.0924 6.03147 14.8632 5.80227C14.634 5.57308 14.3231 5.44432 13.999 5.44432ZM6.66651 20.1099C6.34239 20.1099 6.03155 20.2387 5.80237 20.4679C5.57318 20.697 5.44442 21.0079 5.44442 21.332C5.44442 21.6562 5.57318 21.967 5.80237 22.1962C6.03155 22.4254 6.34239 22.5542 6.66651 22.5542C6.99063 22.5542 7.30147 22.4254 7.53065 22.1962C7.75984 21.967 7.8886 21.6562 7.8886 21.332C7.8886 21.0079 7.75984 20.697 7.53065 20.4679C7.30147 20.2387 6.99063 20.1099 6.66651 20.1099ZM21.3315 20.1099C21.0074 20.1099 20.6966 20.2387 20.4674 20.4679C20.2382 20.697 20.1095 21.0079 20.1095 21.332C20.1095 21.6562 20.2382 21.967 20.4674 22.1962C20.6966 22.4254 21.0074 22.5542 21.3315 22.5542C21.6557 22.5542 21.9665 22.4254 22.1957 22.1962C22.4249 21.967 22.5536 21.6562 22.5536 21.332C22.5536 21.0079 22.4249 20.697 22.1957 20.4679C21.9665 20.2387 21.6557 20.1099 21.3315 20.1099Z" fill="#F8F8F8"/>
</svg>
