<svg width="24" height="24" viewBox="0 0 24 24" fill="none" xmlns="http://www.w3.org/2000/svg">
<g clip-path="url(#clip0_849_2546)">
<path d="M3.49512 23.1506L20.0169 3.19543C20.5388 3.19543 21.4951 3.24419 21.4951 4.56479V23.7702C21.4951 24.3046 21.0725 24.7373 20.5507 24.7373H4.64194C4.12012 24.7393 3.49512 24.2599 3.49512 23.1506Z" fill="#777777"/>
<path d="M3.49512 23.1771V4.11183C3.49512 3.60188 3.8979 3.18945 4.39591 3.18945H19.9872C20.4852 3.18945 20.888 3.60188 20.888 4.11183V23.1771C20.888 23.687 20.4852 24.0995 19.9872 24.0995H4.39591C3.8979 24.0995 3.49512 23.687 3.49512 23.1771Z" fill="#F0F0F0"/>
<path d="M5.44141 22.2184V5.02229C5.44141 4.7602 5.64974 4.54688 5.90569 4.54688H18.6874C18.9434 4.54688 19.1517 4.7602 19.1517 5.02229V22.2184C19.1517 22.4805 18.9434 22.6938 18.6874 22.6938H5.90569C5.64974 22.6938 5.44141 22.4825 5.44141 22.2184Z" fill="white"/>
<path d="M8 11.9997H17M8 10H17M8 13.9993H17M8 16.0007H17M8 18.0003H17M8 20H11.8495" stroke="#ABABAB" stroke-miterlimit="10" stroke-linecap="round"/>
<path opacity="0.35" d="M17.0448 5.7085V3.19531H14.271L15.9992 5.7085H17.0448Z" fill="#212121"/>
<path d="M15.2749 3.28826L14.636 3.2781C14.2114 3.2781 14.1321 2.89208 14.1162 2.81081C14.0944 2.70516 14.0666 2.47152 14.0547 2.37806C13.9476 1.46584 13.642 0.905098 12.5289 0.775071C11.5646 0.663329 10.8722 1.67714 10.8722 2.64421V2.65234C10.8741 3.08915 10.5507 3.45485 10.1241 3.45485C10.1241 3.45485 8.87811 3.23746 7.98723 4.28175C7.82057 4.47679 7.62017 5.28133 7.61819 5.50685C7.61422 6.13464 8.14398 6.21794 8.3285 6.21997C9.15787 6.22606 15.9138 6.20371 16.5606 6.20371C16.8265 6.20371 17.0428 5.98226 17.0428 5.71002V5.34228C17.0448 4.298 16.2928 3.28826 15.2749 3.28826ZM12.4733 3.34311C12.3861 3.34311 12.2996 3.32551 12.219 3.2913C12.1383 3.2571 12.0651 3.20697 12.0033 3.14376C11.9416 3.08056 11.8927 3.00553 11.8593 2.92296C11.8259 2.84038 11.8087 2.75188 11.8087 2.6625C11.8087 2.57312 11.8259 2.48462 11.8593 2.40204C11.8927 2.31946 11.9416 2.24443 12.0033 2.18123C12.0651 2.11803 12.1383 2.0679 12.219 2.0337C12.2996 1.99949 12.3861 1.98189 12.4733 1.98189C12.6496 1.98189 12.8187 2.05359 12.9433 2.18123C13.068 2.30887 13.138 2.48199 13.138 2.6625C13.138 2.84301 13.068 3.01613 12.9433 3.14376C12.8187 3.2714 12.6496 3.34311 12.4733 3.34311Z" fill="#21292B"/>
<path d="M14.9119 3.1874H14.527C14.1024 3.1874 13.9317 2.84608 13.8781 2.72824C13.8008 2.55555 13.7789 2.20407 13.7651 2.11061C13.6539 1.39343 13.0686 0.824557 12.3643 0.747353C11.4 0.639674 10.5825 1.41171 10.5825 2.37676V2.38489C10.5845 2.8217 10.2611 3.1874 9.8345 3.1874H9.45751C8.96865 3.1874 8.49981 3.38625 8.15413 3.74021C7.80846 4.09417 7.61426 4.57425 7.61426 5.07483V5.44256C7.61426 5.7148 7.83053 5.93626 8.0964 5.93626H16.271C16.5369 5.93626 16.7531 5.7148 16.7531 5.44256V5.07483C16.7551 4.03258 15.9297 3.1874 14.9119 3.1874ZM12.1837 3.07769C12.0964 3.07769 12.01 3.06008 11.9293 3.02588C11.8487 2.99167 11.7754 2.94154 11.7137 2.87834C11.652 2.81514 11.603 2.74011 11.5696 2.65753C11.5362 2.57496 11.519 2.48645 11.519 2.39708C11.519 2.3077 11.5362 2.21919 11.5696 2.13662C11.603 2.05404 11.652 1.97901 11.7137 1.91581C11.7754 1.85261 11.8487 1.80248 11.9293 1.76827C12.01 1.73407 12.0964 1.71646 12.1837 1.71646C12.36 1.71646 12.5291 1.78817 12.6537 1.91581C12.7784 2.04345 12.8484 2.21657 12.8484 2.39708C12.8484 2.57758 12.7784 2.7507 12.6537 2.87834C12.5291 3.00598 12.36 3.07769 12.1837 3.07769Z" fill="#DCDCDC" fill-opacity="0.8"/>
<path d="M15.4657 4.41615H8.70379C8.44585 4.41615 8.37839 4.26784 8.51133 4.04232C8.70577 3.71522 9.17006 3.49986 9.56689 3.49986C10.428 3.49986 13.5351 3.40234 14.6284 3.40234C15.1621 3.40234 15.4399 3.5852 15.672 3.88995C15.8367 4.10937 15.7336 4.41615 15.4657 4.41615Z" fill="#FEFFFF"/>
</g>
<defs>
<clipPath id="clip0_849_2546">
<rect width="24" height="24" fill="white"/>
</clipPath>
</defs>
</svg>
