<svg width="32" height="32" viewBox="0 0 32 32" fill="none" xmlns="http://www.w3.org/2000/svg">
<path d="M5.33268 29.3333C4.59935 29.3333 3.97179 29.0724 3.45002 28.5506C2.92824 28.0288 2.6669 27.4008 2.66602 26.6666V7.99996H5.33268V26.6666H23.9993V29.3333H5.33268ZM10.666 24C9.93268 24 9.30513 23.7391 8.78335 23.2173C8.26157 22.6955 8.00024 22.0675 7.99935 21.3333V5.33329C7.99935 4.59996 8.26068 3.9724 8.78335 3.45063C9.30602 2.92885 9.93357 2.66751 10.666 2.66663H26.666C27.3993 2.66663 28.0273 2.92796 28.55 3.45063C29.0727 3.97329 29.3336 4.60085 29.3327 5.33329V21.3333C29.3327 22.0666 29.0718 22.6946 28.55 23.2173C28.0282 23.74 27.4002 24.0008 26.666 24H10.666ZM17.3327 14.6666L20.666 12.6666L23.9993 14.6666V5.33329H17.3327V14.6666Z" fill="white"/>
</svg>
