<svg width="20" height="24" viewBox="0 0 20 24" fill="none" xmlns="http://www.w3.org/2000/svg">
<path d="M3.57122 16.8008C3.38178 16.8008 3.2001 16.864 3.06614 16.9765C2.93219 17.089 2.85693 17.2417 2.85693 17.4008C2.85693 17.5599 2.93219 17.7125 3.06614 17.825C3.2001 17.9376 3.38178 18.0008 3.57122 18.0008H16.4284C16.6178 18.0008 16.7995 17.9376 16.9334 17.825C17.0674 17.7125 17.1426 17.5599 17.1426 17.4008C17.1426 17.2417 17.0674 17.089 16.9334 16.9765C16.7995 16.864 16.6178 16.8008 16.4284 16.8008H3.57122ZM2.85693 19.8008C2.85693 19.6417 2.93219 19.489 3.06614 19.3765C3.2001 19.264 3.38178 19.2008 3.57122 19.2008H12.1426C12.3321 19.2008 12.5138 19.264 12.6477 19.3765C12.7817 19.489 12.8569 19.6417 12.8569 19.8008C12.8569 19.9599 12.7817 20.1125 12.6477 20.225C12.5138 20.3376 12.3321 20.4008 12.1426 20.4008H3.57122C3.38178 20.4008 3.2001 20.3376 3.06614 20.225C2.93219 20.1125 2.85693 19.9599 2.85693 19.8008Z" fill="#F8F8F8"/>
<path fill-rule="evenodd" clip-rule="evenodd" d="M7.80199 6.96873C7.74773 6.85941 7.65618 6.76603 7.53886 6.70035C7.42154 6.63466 7.2837 6.59961 7.1427 6.59961C7.00171 6.59961 6.86387 6.63466 6.74655 6.70035C6.62923 6.76603 6.53767 6.85941 6.48342 6.96873L3.81056 12.3567C3.80629 12.3651 3.80225 12.3735 3.79842 12.3819L2.91199 14.1687C2.83905 14.3156 2.83857 14.4808 2.91063 14.628C2.9827 14.7752 3.12142 14.8923 3.29627 14.9535C3.47113 15.0148 3.66779 15.0152 3.84301 14.9547C4.01822 14.8941 4.15763 14.7776 4.23056 14.6307L4.94056 13.1997H9.34485L10.0548 14.6307C10.1278 14.7776 10.2672 14.8941 10.4424 14.9547C10.6176 15.0152 10.8143 15.0148 10.9891 14.9535C11.164 14.8923 11.3027 14.7752 11.3748 14.628C11.4468 14.4808 11.4464 14.3156 11.3734 14.1687L10.487 12.3819C10.4832 12.3735 10.4791 12.3651 10.4748 12.3567L7.80199 6.96873ZM7.1427 8.75973L8.74985 11.9997H5.53556L7.1427 8.75973Z" fill="#F8F8F8"/>
<path d="M14.2854 10.1992C14.4748 10.1992 14.6565 10.2624 14.7904 10.375C14.9244 10.4875 14.9997 10.6401 14.9997 10.7992V11.9992H16.4282C16.6177 11.9992 16.7993 12.0624 16.9333 12.175C17.0673 12.2875 17.1425 12.4401 17.1425 12.5992C17.1425 12.7583 17.0673 12.911 16.9333 13.0235C16.7993 13.136 16.6177 13.1992 16.4282 13.1992H14.9997V14.3992C14.9997 14.5583 14.9244 14.711 14.7904 14.8235C14.6565 14.936 14.4748 14.9992 14.2854 14.9992C14.0959 14.9992 13.9142 14.936 13.7803 14.8235C13.6463 14.711 13.5711 14.5583 13.5711 14.3992V13.1992H12.1425C11.9531 13.1992 11.7714 13.136 11.6374 13.0235C11.5035 12.911 11.4282 12.7583 11.4282 12.5992C11.4282 12.4401 11.5035 12.2875 11.6374 12.175C11.7714 12.0624 11.9531 11.9992 12.1425 11.9992H13.5711V10.7992C13.5711 10.6401 13.6463 10.4875 13.7803 10.375C13.9142 10.2624 14.0959 10.1992 14.2854 10.1992Z" fill="#F8F8F8"/>
<path fill-rule="evenodd" clip-rule="evenodd" d="M20 6.6L12.8571 0H2.85714C2.09938 0 1.37266 0.252856 0.836838 0.702944C0.301019 1.15303 0 1.76348 0 2.4V21.6C0 22.2365 0.301019 22.847 0.836838 23.2971C1.37266 23.7471 2.09938 24 2.85714 24H17.1429C17.9006 24 18.6273 23.7471 19.1632 23.2971C19.699 22.847 20 22.2365 20 21.6V6.6ZM12.1429 6.6C12.1429 6.75913 12.2181 6.91174 12.3521 7.02426C12.486 7.13679 12.6677 7.2 12.8571 7.2H18.5714V21.6C18.5714 21.9183 18.4209 22.2235 18.153 22.4485C17.8851 22.6736 17.5217 22.8 17.1429 22.8H2.85714C2.47826 22.8 2.1149 22.6736 1.84699 22.4485C1.57908 22.2235 1.42857 21.9183 1.42857 21.6V2.4C1.42857 2.08174 1.57908 1.77652 1.84699 1.55147C2.1149 1.32643 2.47826 1.2 2.85714 1.2H12.1429V6.6ZM17.42 6L13.5714 2.4438V6H17.42Z" fill="#F8F8F8"/>
</svg>
