<svg width="32" height="32" viewBox="0 0 32 32" fill="none" xmlns="http://www.w3.org/2000/svg">
<path d="M25.3332 5.33333H22.6665V4C22.6665 3.64638 22.526 3.30724 22.276 3.05719C22.0259 2.80714 21.6868 2.66667 21.3332 2.66667C20.9795 2.66667 20.6404 2.80714 20.3904 3.05719C20.1403 3.30724 19.9998 3.64638 19.9998 4V5.33333H11.9998V4C11.9998 3.64638 11.8594 3.30724 11.6093 3.05719C11.3593 2.80714 11.0201 2.66667 10.6665 2.66667C10.3129 2.66667 9.97374 2.80714 9.72369 3.05719C9.47365 3.30724 9.33317 3.64638 9.33317 4V5.33333H6.6665C5.60564 5.33333 4.58822 5.75476 3.83808 6.50491C3.08793 7.25505 2.6665 8.27247 2.6665 9.33333V25.3333C2.6665 26.3942 3.08793 27.4116 3.83808 28.1618C4.58822 28.9119 5.60564 29.3333 6.6665 29.3333H25.3332C26.394 29.3333 27.4115 28.9119 28.1616 28.1618C28.9117 27.4116 29.3332 26.3942 29.3332 25.3333V9.33333C29.3332 8.27247 28.9117 7.25505 28.1616 6.50491C27.4115 5.75476 26.394 5.33333 25.3332 5.33333ZM26.6665 25.3333C26.6665 25.687 26.526 26.0261 26.276 26.2761C26.0259 26.5262 25.6868 26.6667 25.3332 26.6667H6.6665C6.31288 26.6667 5.97374 26.5262 5.7237 26.2761C5.47365 26.0261 5.33317 25.687 5.33317 25.3333V16H26.6665V25.3333ZM26.6665 13.3333H5.33317V9.33333C5.33317 8.97971 5.47365 8.64057 5.7237 8.39053C5.97374 8.14048 6.31288 8 6.6665 8H9.33317V9.33333C9.33317 9.68696 9.47365 10.0261 9.72369 10.2761C9.97374 10.5262 10.3129 10.6667 10.6665 10.6667C11.0201 10.6667 11.3593 10.5262 11.6093 10.2761C11.8594 10.0261 11.9998 9.68696 11.9998 9.33333V8H19.9998V9.33333C19.9998 9.68696 20.1403 10.0261 20.3904 10.2761C20.6404 10.5262 20.9795 10.6667 21.3332 10.6667C21.6868 10.6667 22.0259 10.5262 22.276 10.2761C22.526 10.0261 22.6665 9.68696 22.6665 9.33333V8H25.3332C25.6868 8 26.0259 8.14048 26.276 8.39053C26.526 8.64057 26.6665 8.97971 26.6665 9.33333V13.3333Z" fill="white"/>
</svg>
