<svg width="32" height="32" viewBox="0 0 32 32" fill="none" xmlns="http://www.w3.org/2000/svg">
<g clip-path="url(#clip0_643_2304)">
<path fill-rule="evenodd" clip-rule="evenodd" d="M14.7505 3.292C15.0786 3.02966 15.4809 2.87728 15.9004 2.85646C16.32 2.83563 16.7354 2.94743 17.0878 3.176L17.2492 3.292L22.9985 7.892C23.279 8.1162 23.5114 8.39474 23.6816 8.71092C23.8518 9.0271 23.9564 9.3744 23.9892 9.732L23.9998 9.97333V25.3333H25.3332V14C25.3331 13.844 25.3878 13.6929 25.4877 13.573C25.5876 13.4531 25.7264 13.3721 25.8798 13.344L25.9998 13.3333H26.6665C27.3393 13.3331 27.9873 13.5872 28.4806 14.0447C28.9739 14.5021 29.276 15.1291 29.3265 15.8L29.3332 16V26.5333C29.333 26.8945 29.1996 27.2429 28.9585 27.5119C28.7174 27.7808 28.3855 27.9513 28.0265 27.9907L27.8665 28H4.13317C3.77176 28.0002 3.42301 27.8669 3.15381 27.6258C2.88461 27.3846 2.71393 27.0526 2.6745 26.6933L2.6665 26.5333V16C2.66629 15.3272 2.92038 14.6792 3.37783 14.1859C3.83529 13.6926 4.4623 13.3905 5.13317 13.34L5.33317 13.3333H5.99984C6.15587 13.3333 6.30698 13.388 6.42685 13.4879C6.54672 13.5877 6.62775 13.7265 6.65584 13.88L6.6665 14V25.3333H7.99984V9.97333C7.99981 9.61425 8.07232 9.25885 8.21299 8.92847C8.35367 8.59808 8.55962 8.29951 8.8185 8.05067L9.00117 7.89067L14.7505 3.292ZM15.9998 11.9987C15.2926 11.9987 14.6143 12.2796 14.1142 12.7797C13.6141 13.2798 13.3332 13.9581 13.3332 14.6653C13.3332 15.3726 13.6141 16.0509 14.1142 16.551C14.6143 17.051 15.2926 17.332 15.9998 17.332C16.7071 17.332 17.3854 17.051 17.8855 16.551C18.3856 16.0509 18.6665 15.3726 18.6665 14.6653C18.6665 13.9581 18.3856 13.2798 17.8855 12.7797C17.3854 12.2796 16.7071 11.9987 15.9998 11.9987Z" fill="white"/>
</g>
<defs>
<clipPath id="clip0_643_2304">
<rect width="32" height="32" fill="white"/>
</clipPath>
</defs>
</svg>
