<svg width="26" height="24" viewBox="0 0 26 24" fill="none" xmlns="http://www.w3.org/2000/svg">
<path d="M23.7692 1H2.23077C1.55103 1 1 1.63139 1 2.41026V21.5897C1 22.3686 1.55103 23 2.23077 23H23.7692C24.449 23 25 22.3686 25 21.5897V2.41026C25 1.63139 24.449 1 23.7692 1Z" stroke="#F8F8F8" stroke-linecap="round" stroke-linejoin="round"/>
<path d="M21.923 3.81982H4.07681C3.73694 3.81982 3.46143 4.13552 3.46143 4.52495V19.4737C3.46143 19.8631 3.73694 20.1788 4.07681 20.1788H21.923C22.2628 20.1788 22.5383 19.8631 22.5383 19.4737V4.52495C22.5383 4.13552 22.2628 3.81982 21.923 3.81982Z" stroke="#F8F8F8" stroke-linecap="round" stroke-linejoin="round"/>
<path d="M16.4953 18.6357H20.5691V20.1799H16.4953V18.6357ZM14.1322 8.47481C13.9836 8.30425 13.8071 8.16894 13.6128 8.07661C13.4185 7.98429 13.2102 7.93677 12.9999 7.93677C12.7895 7.93677 12.5813 7.98429 12.387 8.07661C12.1927 8.16894 12.0162 8.30425 11.8676 8.47481C11.6817 8.68881 11.5447 8.9519 11.4685 9.24091C11.3923 9.52991 11.3794 9.83595 11.4308 10.132C11.4822 10.4281 11.5964 10.7052 11.7633 10.9388C11.9302 11.1724 12.1447 11.3554 12.3879 11.4716C12.631 11.5878 12.8954 11.6336 13.1577 11.6051C13.42 11.5766 13.6722 11.4746 13.8919 11.3081C14.1117 11.1416 14.2924 10.9157 14.418 10.6503C14.5436 10.385 14.6103 10.0882 14.6122 9.78635C14.613 9.54074 14.5697 9.29757 14.485 9.07194C14.4003 8.84632 14.276 8.64306 14.1199 8.47481H14.1322ZM11.7691 13.0793H14.2307C14.7203 13.0793 15.1899 13.3022 15.5361 13.6989C15.8823 14.0956 16.0768 14.6336 16.0768 15.1947V16.0479H9.92296V15.1947C9.92296 14.6336 10.1175 14.0956 10.4637 13.6989C10.8099 13.3022 11.2795 13.0793 11.7691 13.0793ZM8.95065 10.2165C8.83623 10.0843 8.70011 9.97938 8.55013 9.90779C8.40015 9.83619 8.23928 9.79933 8.0768 9.79933C7.91433 9.79933 7.75346 9.83619 7.60348 9.90779C7.4535 9.97938 7.31737 10.0843 7.20296 10.2165C7.06119 10.3803 6.95667 10.5815 6.89856 10.8024C6.84045 11.0233 6.83053 11.2572 6.86966 11.4835C6.90878 11.7098 6.99577 11.9216 7.12299 12.1005C7.25021 12.2793 7.41378 12.4196 7.59935 12.5091C7.78492 12.5987 7.98683 12.6347 8.18737 12.614C8.3879 12.5933 8.58095 12.5165 8.74957 12.3904C8.91819 12.2644 9.05724 12.0928 9.15453 11.8908C9.25182 11.6888 9.30437 11.4625 9.30757 11.2319C9.30771 11.0441 9.27513 10.8582 9.21172 10.685C9.14832 10.5119 9.05537 10.355 8.93834 10.2235L8.95065 10.2165Z" stroke="#F8F8F8" stroke-linecap="round" stroke-linejoin="round"/>
<path d="M10.1327 14.2139C10.0178 14.07 9.87808 13.955 9.72237 13.8761C9.56666 13.7972 9.39836 13.7562 9.22811 13.7556H6.92657C6.60015 13.7556 6.2871 13.9042 6.05628 14.1687C5.82547 14.4331 5.6958 14.7918 5.6958 15.1659V16.0473H9.92349M16.0773 16.0473H20.2989V15.1659C20.2989 14.7918 20.1692 14.4331 19.9384 14.1687C19.7076 13.9042 19.3945 13.7556 19.0681 13.7556H16.7727C16.6025 13.7562 16.4342 13.7972 16.2785 13.8761C16.1228 13.955 15.983 14.07 15.8681 14.2139M18.7973 10.2159C18.6829 10.0837 18.5468 9.97876 18.3968 9.90716C18.2468 9.83557 18.086 9.79871 17.9235 9.79871C17.761 9.79871 17.6001 9.83557 17.4502 9.90716C17.3002 9.97876 17.1641 10.0837 17.0496 10.2159C16.9079 10.3797 16.8034 10.5809 16.7453 10.8018C16.6871 11.0227 16.6772 11.2565 16.7163 11.4828C16.7555 11.7092 16.8425 11.921 16.9697 12.0998C17.0969 12.2787 17.2605 12.419 17.446 12.5085C17.6316 12.5981 17.8335 12.634 18.0341 12.6134C18.2346 12.5927 18.4276 12.5159 18.5963 12.3898C18.7649 12.2637 18.9039 12.0922 19.0012 11.8902C19.0985 11.6882 19.1511 11.4619 19.1543 11.2312C19.1544 11.0435 19.1218 10.8576 19.0584 10.6844C18.995 10.5113 18.9021 10.3544 18.785 10.2229L18.7973 10.2159Z" stroke="#F8F8F8" stroke-linecap="round" stroke-linejoin="round"/>
</svg>
