<svg width="26" height="26" viewBox="0 0 26 26" fill="none" xmlns="http://www.w3.org/2000/svg">
<path d="M25.3162 4.0512L13.3162 0.051202C13.111 -0.0172301 12.889 -0.0172301 12.6838 0.051202L0.68375 4.0512C0.484631 4.11758 0.311446 4.24493 0.188729 4.41521C0.0660121 4.58549 -1.55528e-05 4.79006 2.74795e-09 4.99995V15C2.74795e-09 15.2652 0.105357 15.5195 0.292893 15.7071C0.48043 15.8946 0.734784 16 1 16C1.26522 16 1.51957 15.8946 1.70711 15.7071C1.89464 15.5195 2 15.2652 2 15V6.38745L6.19875 7.7862C5.0832 9.58846 4.72846 11.7598 5.21242 13.8233C5.69638 15.8869 6.97949 17.6741 8.78 18.7925C6.53 19.675 4.585 21.2712 3.1625 23.4537C3.08852 23.5637 3.03713 23.6872 3.01133 23.8172C2.98552 23.9472 2.98581 24.081 3.01218 24.2109C3.03854 24.3408 3.09046 24.4641 3.16492 24.5737C3.23937 24.6834 3.33488 24.7771 3.44588 24.8495C3.55688 24.9219 3.68117 24.9715 3.81151 24.9955C3.94185 25.0194 4.07566 25.0172 4.20514 24.989C4.33463 24.9608 4.45722 24.9071 4.56577 24.8311C4.67433 24.7551 4.7667 24.6582 4.8375 24.5462C6.72125 21.6562 9.69625 20 13 20C16.3037 20 19.2788 21.6562 21.1625 24.5462C21.3092 24.7642 21.5357 24.9157 21.7932 24.968C22.0507 25.0203 22.3184 24.9691 22.5385 24.8256C22.7586 24.682 22.9133 24.4576 22.9692 24.2009C23.0252 23.9442 22.9779 23.6758 22.8375 23.4537C21.415 21.2712 19.4625 19.675 17.22 18.7925C19.0188 17.6741 20.3007 15.8881 20.7846 13.8261C21.2684 11.764 20.9148 9.59418 19.8013 7.79245L25.3162 5.95495C25.5154 5.88861 25.6886 5.76128 25.8114 5.591C25.9342 5.42072 26.0002 5.21612 26.0002 5.0062C26.0002 4.79628 25.9342 4.59169 25.8114 4.42141C25.6886 4.25112 25.5154 4.12379 25.3162 4.05745V4.0512ZM19 12C19.0003 12.9485 18.7756 13.8836 18.3445 14.7286C17.9134 15.5735 17.2881 16.3042 16.5199 16.8607C15.7517 17.4172 14.8625 17.7836 13.9253 17.9299C12.9881 18.0762 12.0295 17.9982 11.1283 17.7022C10.2271 17.4063 9.40884 16.901 8.74074 16.2276C8.07264 15.5542 7.57371 14.7321 7.28489 13.8285C6.99607 12.925 6.92559 11.9659 7.07923 11.0298C7.23287 10.0938 7.60626 9.2075 8.16875 8.4437L12.6838 9.9437C12.889 10.0121 13.111 10.0121 13.3162 9.9437L17.8312 8.4437C18.591 9.4737 19.0006 10.7201 19 12Z" fill="white"/>
</svg>
