<svg width="24" height="24" viewBox="0 0 24 24" fill="none" xmlns="http://www.w3.org/2000/svg">
<g clip-path="url(#clip0_849_2558)">
<path d="M6.87256 22.941C6.00489 22.9001 5.13533 22.9627 4.27711 23.1369C3.53988 23.2866 2.81209 23.5235 2.10321 23.8419C1.93119 23.9181 1.73838 23.9807 1.57581 24.0978C1.47184 24.174 1.38677 24.2611 1.29415 24.0951C1.1656 23.8719 1.25067 23.4663 1.27146 23.2104C1.31305 22.696 1.36031 22.1843 1.41513 21.6725C1.65331 19.3943 1.97278 17.1378 2.19017 14.8542C2.28469 13.8443 2.36219 12.8263 2.45293 11.8165C2.4983 11.2966 2.54934 10.7767 2.60794 10.2596C2.67977 9.62536 2.69489 9.17896 3.10699 8.79517C3.80831 8.14191 4.64951 7.85339 5.45291 7.57304C6.31869 7.2709 7.18257 7.01504 8.0786 7.06404C8.70619 7.09942 9.31677 7.33895 9.87065 7.76085C10.1391 7.96499 10.3962 8.20452 10.64 8.46855C10.882 8.72713 11.1769 9.00476 11.3697 9.33684C11.5417 9.6308 11.5965 9.89755 11.6135 10.2024C11.4945 14.1029 11.5134 23.7739 11.5341 24.4598C11.536 24.517 11.5398 24.5741 11.5417 24.6313C11.5323 24.7048 11.5039 24.7619 11.4207 24.7619C11.3205 24.7646 11.2109 24.6694 11.1239 24.6041C10.9444 24.468 10.7629 24.3373 10.5814 24.2148C9.40751 23.4173 8.17122 23.0008 6.87256 22.941ZM22.9008 24.0923C22.8063 24.2584 22.7231 24.1713 22.6191 24.0951C22.4585 23.978 22.2656 23.9154 22.0917 23.8392C21.3829 23.5207 20.6551 23.2866 19.9178 23.1342C19.0596 22.96 18.1882 22.9001 17.3205 22.9382C16.0237 22.9981 14.7874 23.4146 13.6116 24.2121C13.4302 24.3373 13.2487 24.468 13.0691 24.6013C12.9822 24.6667 12.8725 24.7592 12.7704 24.7592C12.6873 24.7592 12.6589 24.702 12.6495 24.6285C12.6513 24.5714 12.657 24.5142 12.657 24.4571C12.6778 23.7711 12.6986 14.1002 12.5776 10.1997C12.5946 9.89483 12.6495 9.62808 12.8196 9.33411C13.0162 9.00204 13.3092 8.72168 13.5511 8.46582C13.795 8.20452 14.0502 7.96227 14.3205 7.75813C14.8763 7.33623 15.485 7.0967 16.1126 7.06132C17.0086 7.0096 17.8725 7.26818 18.7383 7.57031C19.5417 7.85067 20.3829 8.13647 21.0861 8.79245C21.4982 9.17624 21.5133 9.62264 21.5851 10.2568C21.6437 10.774 21.6948 11.2939 21.7401 11.8138C21.829 12.8263 21.9065 13.8416 22.0029 14.8514C22.2203 17.1324 22.5416 19.3916 22.7779 21.6698C22.829 22.1815 22.88 22.6933 22.9216 23.2077C22.9443 23.4636 23.0293 23.8691 22.9008 24.0923Z" fill="white"/>
<path d="M23.9686 26.4987C23.9818 26.1176 24.1028 25.0533 24.099 24.8465C24.0858 22.1953 22.9176 13.458 22.7304 11.3294L22.7191 11.1988C22.6548 10.3632 22.6302 9.36966 22.4166 8.5803C22.2011 7.7855 21.5036 7.50787 21.0008 7.22751C18.9195 6.08431 16.5698 5.12075 14.3619 6.12786C13.4999 6.51981 12.7229 7.21934 12.0991 8.32172C11.4772 7.21934 10.6984 6.51981 9.83827 6.12786C7.63034 5.12075 5.28064 6.08431 3.19937 7.22751C2.69654 7.50515 1.99522 7.78278 1.78161 8.5803C1.56801 9.36966 1.54343 10.3604 1.47916 11.1988L1.46782 11.3294C1.28067 13.458 0.114329 22.1953 0.0992065 24.8465C0.0954258 25.056 0.218298 26.1176 0.231531 26.4987C0.250434 27.0485 0.205066 27.601 0.223969 28.1481C0.186162 28.3387 0.220189 28.5183 0.301474 28.6599C0.354403 28.8068 0.435688 28.8967 0.524534 28.9429C0.726801 29.2641 1.09353 29.0518 1.3336 28.9429C3.48482 27.9413 5.84964 27.9794 8.0689 28.404C8.4621 28.4775 8.8534 28.57 9.24281 28.6789C9.64734 28.7932 10.0311 29.0001 10.4186 29.1988C10.7381 29.3621 11.0727 29.4982 11.4091 29.5908C11.6511 29.6697 11.8874 29.7024 11.9952 29.7051C12.033 29.7051 12.067 29.6996 12.1029 29.6969C12.1388 29.6969 12.1747 29.7051 12.2107 29.7051C12.3184 29.7051 12.5547 29.6724 12.7967 29.5908C13.1331 29.4982 13.4677 29.3621 13.7872 29.1988C14.1747 29.0001 14.5604 28.7932 14.9649 28.6789C15.3543 28.57 15.7456 28.4775 16.1388 28.404C18.3562 27.9794 20.7229 27.9413 22.8741 28.9429C23.1123 29.0545 23.479 29.2641 23.6813 28.9429C23.772 28.8967 23.8514 28.8068 23.9043 28.6599C23.9856 28.5183 24.0196 28.3387 23.9818 28.1481C23.9951 27.5983 23.9497 27.0485 23.9686 26.4987ZM6.87231 22.9411C6.00465 22.9003 5.13509 22.9629 4.27687 23.1371C3.53964 23.2868 2.81185 23.5236 2.10297 23.8421C1.93095 23.9183 1.73814 23.9809 1.57557 24.0979C1.4716 24.1741 1.38653 24.2612 1.2939 24.0952C1.16536 23.872 1.25043 23.4665 1.27122 23.2106C1.31281 22.6961 1.36007 22.1844 1.41489 21.6727C1.65307 19.3945 1.97254 17.138 2.18993 14.8543C2.28445 13.8445 2.36195 12.8265 2.45269 11.8167C2.49806 11.2968 2.54909 10.7769 2.6077 10.2597C2.67953 9.62552 2.69465 9.17912 3.10675 8.79533C3.80806 8.14207 4.64927 7.85355 5.45267 7.57319C6.31844 7.27106 7.18233 7.0152 8.07836 7.0642C8.70595 7.09958 9.31653 7.33911 9.8704 7.76101C10.1388 7.96515 10.3959 8.20468 10.6398 8.4687C10.8817 8.72729 11.1766 9.00492 11.3694 9.33699C11.5415 9.63096 11.5963 9.89771 11.6133 10.2026C11.4942 14.1031 11.5131 23.774 11.5339 24.46C11.5358 24.5171 11.5396 24.5743 11.5415 24.6314C11.532 24.7049 11.5037 24.7621 11.4205 24.7621C11.3203 24.7648 11.2107 24.6695 11.1237 24.6042C10.9441 24.4681 10.7626 24.3375 10.5812 24.215C9.40727 23.4175 8.17098 23.001 6.87231 22.9411ZM22.9006 24.0925C22.806 24.2585 22.7229 24.1714 22.6189 24.0952C22.4582 23.9782 22.2654 23.9156 22.0915 23.8394C21.3826 23.5209 20.6548 23.2868 19.9176 23.1344C19.0594 22.9602 18.1879 22.9003 17.3203 22.9384C16.0235 22.9983 14.7872 23.4147 13.6114 24.2123C13.4299 24.3375 13.2485 24.4681 13.0689 24.6015C12.9819 24.6668 12.8723 24.7594 12.7702 24.7594C12.687 24.7594 12.6587 24.7022 12.6492 24.6287C12.6511 24.5715 12.6568 24.5144 12.6568 24.4572C12.6776 23.7713 12.6984 14.1003 12.5774 10.1998C12.5944 9.89499 12.6492 9.62824 12.8193 9.33427C13.0159 9.0022 13.3089 8.72184 13.5509 8.46598C13.7948 8.20468 14.05 7.96243 14.3203 7.75828C14.876 7.33639 15.4847 7.09686 16.1123 7.06147C17.0083 7.00976 17.8722 7.26834 18.738 7.57047C19.5414 7.85083 20.3826 8.13663 21.0858 8.79261C21.4979 9.1764 21.513 9.6228 21.5849 10.257C21.6435 10.7742 21.6945 11.2941 21.7399 11.8139C21.8287 12.8265 21.9062 13.8418 22.0026 14.8516C22.22 17.1326 22.5414 19.3917 22.7777 21.67C22.8287 22.1817 22.8798 22.6934 22.9214 23.2079C22.944 23.4637 23.0291 23.8693 22.9006 24.0925Z" fill="#2F2F2F"/>
<path d="M10.0313 10.109C8.2411 8.90044 5.82902 8.83511 4.02752 10.0763C3.55115 10.4057 3.96703 11.3992 4.43962 11.0916C5.97269 10.0845 8.07475 10.2369 9.56245 11.2631C10.0993 11.6305 10.57 10.4737 10.0313 10.109ZM9.97455 13.2936C8.06908 12.0905 5.61919 11.636 3.69671 13.0622C3.27894 13.3725 3.64567 14.2218 4.05966 13.955C5.82335 12.82 7.93676 13.4869 9.6513 14.4014C10.0955 14.641 10.4112 13.5685 9.97455 13.2936ZM9.87436 16.4701C9.67209 16.2251 9.39043 16.1108 9.14658 15.9829C7.37721 15.052 5.02751 15.0139 3.32809 16.2659C2.9538 16.5408 3.26949 17.3248 3.63811 17.1723C4.56438 16.794 5.43583 16.5844 6.39801 16.5708C7.15226 16.5599 7.83657 16.6742 8.55679 16.9845C8.77418 17.0771 8.98212 17.1125 9.19005 17.254C9.33939 17.3547 9.52465 17.4826 9.68911 17.5126C10.0483 17.5752 10.122 16.8158 9.91973 16.5272L9.87436 16.4701ZM9.68722 19.5377C7.64186 18.1495 5.34698 18.4054 3.27705 19.456C2.84984 19.6738 3.05399 20.621 3.48877 20.425C4.4623 19.9841 5.27326 19.6547 6.30728 19.6357C7.3016 19.6193 8.38099 20.0875 9.29213 20.6019C9.78173 20.8823 10.1844 19.8752 9.68722 19.5377ZM14.6324 11.2603C16.1201 10.2342 18.2221 10.0845 19.7552 11.0889C20.2259 11.3992 20.6437 10.4029 20.1673 10.0736C18.3677 8.83239 15.9556 8.89771 14.1654 10.1062C13.6248 10.4737 14.0936 11.6305 14.6324 11.2603ZM14.5454 14.4014C16.2599 13.4869 18.3734 12.82 20.137 13.955C20.551 14.2218 20.9178 13.3725 20.5 13.0622C18.5756 11.636 16.1257 12.0905 14.2222 13.2936C13.7855 13.5685 14.0993 14.641 14.5454 14.4014ZM14.5057 17.5153C14.6721 17.4854 14.8535 17.3574 15.0029 17.2567C15.2127 17.1152 15.4206 17.0798 15.638 16.9872C16.3582 16.6797 17.0426 16.5653 17.7968 16.5735C18.759 16.5844 19.6323 16.794 20.5586 17.1751C20.9253 17.3275 21.241 16.5408 20.8686 16.2687C19.1692 15.0166 16.8176 15.0547 15.0501 15.9856C14.8063 16.1135 14.5246 16.2251 14.3205 16.4728L14.2751 16.5327C14.0709 16.8158 14.1484 17.5779 14.5057 17.5153ZM20.9196 19.456C18.8497 18.4054 16.5548 18.1495 14.5095 19.5377C14.0123 19.8752 14.415 20.8823 14.9065 20.6019C15.8157 20.0875 16.8932 19.6193 17.8894 19.6357C18.9216 19.6547 19.7344 19.9841 20.706 20.425C21.1427 20.6237 21.3469 19.6738 20.9196 19.456Z" fill="#2F2F2F"/>
</g>
<defs>
<clipPath id="clip0_849_2558">
<rect width="24" height="24" fill="white"/>
</clipPath>
</defs>
</svg>
