<svg width="24" height="23" viewBox="0 0 24 23" fill="none" xmlns="http://www.w3.org/2000/svg">
<g clip-path="url(#clip0_849_2544)">
<path d="M22.5 2.15376L16.4948 2.15378V0.721313C16.4948 0.324204 16.1591 0.00256348 15.7448 0.00256348C15.3304 0.00256348 14.9948 0.324204 14.9948 0.721313V2.15342H8.99475V0.721313C8.99475 0.324204 8.65913 0.00256348 8.24475 0.00256348C7.83038 0.00256348 7.49475 0.324204 7.49475 0.721313V2.15342H1.5C0.671625 2.15342 0 2.79706 0 3.59092V21.5597C0 22.3535 0.671625 22.9972 1.5 22.9972H22.5C23.3284 22.9972 24 22.3535 24 21.5597V3.59092C24 2.7974 23.3284 2.15376 22.5 2.15376ZM22.5 21.5597H1.5V3.59092H7.49475V4.31506C7.49475 4.71215 7.83038 5.03381 8.24475 5.03381C8.65913 5.03381 8.99475 4.71215 8.99475 4.31506V3.59128H14.9948V4.31542C14.9948 4.71253 15.3304 5.03417 15.7448 5.03417C16.1591 5.03417 16.4948 4.71253 16.4948 4.31542V3.59128H22.5V21.5597ZM17.25 11.4975H18.75C19.164 11.4975 19.5 11.1755 19.5 10.7788V9.34126C19.5 8.94451 19.164 8.62251 18.75 8.62251H17.25C16.836 8.62251 16.5 8.94451 16.5 9.34126V10.7788C16.5 11.1755 16.836 11.4975 17.25 11.4975ZM17.25 17.2472H18.75C19.164 17.2472 19.5 16.9255 19.5 16.5284V15.0909C19.5 14.6942 19.164 14.3722 18.75 14.3722H17.25C16.836 14.3722 16.5 14.6942 16.5 15.0909V16.5284C16.5 16.9259 16.836 17.2472 17.25 17.2472ZM12.75 14.3722H11.25C10.836 14.3722 10.5 14.6942 10.5 15.0909V16.5284C10.5 16.9255 10.836 17.2472 11.25 17.2472H12.75C13.164 17.2472 13.5 16.9255 13.5 16.5284V15.0909C13.5 14.6945 13.164 14.3722 12.75 14.3722ZM12.75 8.62251H11.25C10.836 8.62251 10.5 8.94451 10.5 9.34126V10.7788C10.5 11.1755 10.836 11.4975 11.25 11.4975H12.75C13.164 11.4975 13.5 11.1755 13.5 10.7788V9.34126C13.5 8.94415 13.164 8.62251 12.75 8.62251ZM6.75 8.62251H5.25C4.836 8.62251 4.5 8.94451 4.5 9.34126V10.7788C4.5 11.1755 4.836 11.4975 5.25 11.4975H6.75C7.164 11.4975 7.5 11.1755 7.5 10.7788V9.34126C7.5 8.94415 7.164 8.62251 6.75 8.62251ZM6.75 14.3722H5.25C4.836 14.3722 4.5 14.6942 4.5 15.0909V16.5284C4.5 16.9255 4.836 17.2472 5.25 17.2472H6.75C7.164 17.2472 7.5 16.9255 7.5 16.5284V15.0909C7.5 14.6945 7.164 14.3722 6.75 14.3722Z" fill="#F8F8F8"/>
</g>
<defs>
<clipPath id="clip0_849_2544">
<rect width="24" height="23" fill="white"/>
</clipPath>
</defs>
</svg>
