<svg width="26" height="26" viewBox="0 0 26 26" fill="none" xmlns="http://www.w3.org/2000/svg">
<path d="M13 14.333C15.2091 14.333 17 12.5421 17 10.333C17 8.12387 15.2091 6.33301 13 6.33301C10.7909 6.33301 9 8.12387 9 10.333C9 12.5421 10.7909 14.333 13 14.333Z" stroke="#F8F8F8" stroke-width="2" stroke-linecap="round" stroke-linejoin="round"/>
<path d="M19.6668 19.6663C19.6668 16.7197 16.6815 14.333 13.0002 14.333C9.31883 14.333 6.3335 16.7197 6.3335 19.6663" stroke="#F8F8F8" stroke-width="2" stroke-linecap="round" stroke-linejoin="round"/>
<path d="M21 1H5C2.79086 1 1 2.79086 1 5V21C1 23.2091 2.79086 25 5 25H21C23.2091 25 25 23.2091 25 21V5C25 2.79086 23.2091 1 21 1Z" stroke="#F8F8F8" stroke-width="2" stroke-linecap="round" stroke-linejoin="round"/>
</svg>
